<svg width="40" height="40" viewBox="0 0 40 40" fill="none" xmlns="http://www.w3.org/2000/svg">
<g clip-path="url(#clip0_2_9)">
<path d="M9.33879 14.7234L4.07221 19.99L9.33879 25.2566L14.6054 19.99L9.33879 14.7234Z" fill="#D7B399"/>
<path d="M19.9944 4.08548L14.7278 9.35205L19.9944 14.6186L25.261 9.35205L19.9944 4.08548Z" fill="#D7B399"/>
<path d="M19.9914 25.3938L14.7248 30.6604L19.9913 35.927L25.2579 30.6604L19.9914 25.3938Z" fill="#D7B399"/>
<path d="M30.647 14.7266L25.3804 19.9932L30.647 25.2597L35.9136 19.9932L30.647 14.7266Z" fill="#D7B399"/>
<path d="M28.6102 12.6867L23.3436 17.9532L25.3828 19.9924L30.6494 14.7258L28.6102 12.6867Z" fill="#D7B399"/>
<path d="M17.9547 23.3533L12.6881 28.6199L14.7273 30.659L19.9938 25.3924L17.9547 23.3533Z" fill="#D7B399"/>
<path d="M25.2587 9.35305L19.9921 14.6196L22.0313 16.6588L27.2978 11.3922L25.2587 9.35305Z" fill="#D7B399"/>
<path d="M14.6177 20.0053L9.35116 25.2719L11.3903 27.311L16.6569 22.0444L14.6177 20.0053Z" fill="#D7B399"/>
<path d="M11.3788 12.6864L9.33961 14.7256L14.6062 19.9922L16.6453 17.953L11.3788 12.6864Z" fill="#D7B399"/>
<path d="M14.727 9.34953L12.6879 11.3887L17.9544 16.6552L19.9936 14.6161L14.727 9.34953Z" fill="#D7B399"/>
<path d="M25.3796 19.9905L23.3405 22.0297L28.607 27.2962L30.6462 25.2571L25.3796 19.9905Z" fill="#D7B399"/>
<path d="M22.046 23.3421L20.0069 25.3812L25.2734 30.6478L27.3126 28.6087L22.046 23.3421Z" fill="#D7B399"/>
<path d="M27.3029 32.6971L25.2697 30.6639L20 35.9336L14.7303 30.6639L12.6971 32.6971L20 40L27.3029 32.6971Z" fill="#D7B399"/>
<path d="M9.3361 14.7302L7.3029 12.697L0 19.9999L7.3029 27.3028L9.3361 25.2696L4.06639 19.9999L9.3361 14.7302Z" fill="#D7B399"/>
<path d="M32.6971 12.697L30.6639 14.7302L35.9336 19.9999L30.6639 25.2696L32.6971 27.3028L40 19.9999L32.6971 12.697Z" fill="#D7B399"/>
<path d="M25.2697 9.3361L27.3029 7.3029L20 0L12.6971 7.3029L14.7303 9.3361L20 4.06639L25.2697 9.3361Z" fill="#D7B399"/>
</g>
<defs>
<clipPath id="clip0_2_9">
<rect width="40" height="40" fill="white"/>
</clipPath>
</defs>
</svg>
